<?xml version="1.0" standalone="no"?>
<!DOCTYPE svg PUBLIC "-//W3C//DTD SVG 20010904//EN"
 "http://www.w3.org/TR/2001/REC-SVG-20010904/DTD/svg10.dtd">
<svg version="1.0" xmlns="http://www.w3.org/2000/svg"
 width="2311.000000pt" height="1025.000000pt" viewBox="0 0 2311.000000 1025.000000"
 preserveAspectRatio="xMidYMid meet">

<g transform="translate(0.000000,1025.000000) scale(0.100000,-0.100000)"
fill="#000000" stroke="none">
<path d="M6960 10068 c0 -794 247 -1495 751 -2136 49 -61 89 -114 89 -116 0
-8 -121 44 -230 99 -279 140 -443 283 -880 764 -101 112 -186 199 -187 194 -2
-5 12 -64 31 -130 175 -607 526 -1062 1076 -1393 102 -62 327 -174 403 -201
20 -7 37 -18 37 -24 -1 -36 -11 -36 -365 15 -191 27 -350 48 -352 46 -2 -2 63
-53 144 -113 1044 -774 2004 -1191 3013 -1308 385 -45 913 -33 1295 30 50 8
93 15 98 15 4 0 7 -22 7 -49 l0 -50 -52 -6 c-489 -55 -709 -74 -993 -85 -478
-18 -626 -60 -1177 -336 -300 -150 -577 -312 -804 -470 -101 -70 -287 -215
-282 -219 2 -2 37 3 78 11 41 8 210 35 375 60 392 59 530 86 607 121 73 32
359 181 598 311 105 57 167 86 172 79 4 -6 5 -14 2 -18 -2 -4 -112 -81 -244
-171 -132 -89 -240 -165 -240 -168 1 -35 223 -52 383 -31 72 10 255 56 343 87
11 4 -2 -14 -30 -44 l-49 -50 74 -22 c124 -36 199 -61 298 -101 52 -22 96 -39
98 -39 1 0 76 70 165 157 423 406 614 513 983 549 346 33 561 99 1050 322 869
396 942 423 1060 401 52 -10 84 -26 127 -67 22 -20 30 -23 42 -13 29 24 49 97
44 165 -5 80 -27 114 -158 248 -79 80 -109 103 -175 135 l-80 38 -430 -1
c-236 0 -558 -2 -715 -4 -550 -6 -951 59 -1705 276 -1239 358 -2131 776 -2809
1318 -540 432 -934 921 -1222 1515 -66 136 -173 399 -214 524 -13 41 -27 67
-36 67 -12 0 -14 -32 -14 -182z m7110 -3645 c36 -19 83 -49 105 -65 l40 -29
-107 3 c-96 3 -109 5 -132 27 -28 26 -51 84 -41 101 10 17 62 2 135 -37z"/>
<path d="M16080 7419 c-380 -31 -672 -93 -1735 -369 -318 -83 -1614 -410
-1695 -428 -44 -9 -43 -10 33 -11 43 0 196 8 340 20 229 18 321 20 727 17 545
-5 505 3 645 -127 108 -100 131 -107 213 -63 31 16 165 89 297 161 274 150
647 341 844 431 232 106 438 168 691 207 91 14 175 18 398 18 l284 0 -54 23
c-254 112 -589 153 -988 121z"/>
<path d="M16495 7196 c-141 -27 -282 -88 -387 -167 -32 -23 -56 -44 -55 -46 4
-3 933 134 952 141 15 5 -60 36 -140 58 -92 25 -276 32 -370 14z"/>
<path d="M16630 5892 c-307 -80 -460 -439 -309 -723 37 -70 136 -167 204 -202
219 -110 472 -58 627 129 75 91 108 187 108 314 0 139 -53 261 -156 360 -128
123 -300 167 -474 122z"/>
<path d="M0 5746 l0 -63 128 -6 c146 -6 217 -20 285 -54 110 -55 157 -126 176
-266 15 -108 15 -3358 0 -3477 -12 -101 -34 -154 -83 -203 -82 -83 -172 -111
-384 -123 l-122 -7 0 -58 0 -59 1115 0 1115 0 0 58 0 59 -122 7 c-210 11 -314
44 -390 123 -53 55 -75 113 -87 232 -7 62 -11 380 -11 802 l0 699 173 0 c367
0 705 32 912 85 277 71 454 166 632 338 138 134 222 265 276 432 45 139 52
191 51 370 0 149 -4 181 -26 265 -54 200 -142 344 -306 501 -65 62 -141 123
-188 151 -231 139 -570 223 -994 248 -96 5 -619 10 -1162 10 l-988 0 0 -64z
m2030 -226 c269 -66 451 -245 519 -512 31 -121 41 -218 41 -401 0 -404 -95
-651 -307 -803 -144 -103 -294 -144 -529 -144 l-134 0 0 946 0 947 163 -6
c113 -4 187 -12 247 -27z"/>
<path d="M4835 4529 c-294 -40 -540 -171 -770 -411 -297 -309 -434 -695 -435
-1225 0 -364 55 -625 188 -889 152 -301 376 -503 662 -598 164 -54 281 -69
483 -63 197 5 303 28 457 95 231 102 431 294 604 580 50 82 126 225 126 235 0
2 -24 20 -54 40 l-53 35 -64 -91 c-80 -115 -246 -284 -319 -325 -106 -59 -172
-75 -305 -76 -88 0 -136 4 -180 18 -363 109 -625 539 -670 1099 l-7 87 826 0
826 0 0 58 c0 153 -47 430 -102 597 -163 500 -558 825 -1023 840 -66 2 -151 0
-190 -6z m235 -230 c59 -26 128 -101 173 -186 73 -140 96 -276 104 -610 l6
-243 -438 0 -438 0 6 168 c11 280 48 457 131 627 71 144 141 221 231 253 53
19 175 14 225 -9z"/>
<path d="M8141 4530 c-281 -59 -501 -243 -780 -649 l-71 -104 0 336 0 337
-620 0 -620 0 0 -63 0 -62 75 -12 c122 -20 184 -63 225 -156 36 -82 42 -287
37 -1317 -6 -1043 -8 -1090 -70 -1181 -36 -54 -157 -109 -239 -109 -27 0 -28
-1 -28 -60 l0 -60 815 0 815 0 0 59 0 58 -74 7 c-157 14 -235 57 -282 153
l-29 58 -3 609 c-3 687 2 783 63 1023 78 311 233 503 406 503 63 0 76 -8 218
-128 172 -146 385 -159 524 -32 97 88 140 202 140 366 0 123 -26 216 -82 290
-38 50 -119 106 -181 125 -50 15 -187 20 -239 9z"/>
<path d="M9592 4530 c-240 -34 -453 -130 -648 -293 -358 -299 -539 -709 -561
-1267 -30 -792 327 -1421 897 -1580 183 -51 439 -65 613 -35 272 47 503 177
684 384 92 105 204 271 277 411 l55 104 -56 38 -56 37 -54 -78 c-165 -242
-321 -366 -508 -406 -273 -58 -528 59 -718 326 -148 208 -228 462 -260 822
l-5 47 824 0 c667 0 824 -2 824 -13 0 -28 106 -184 173 -253 131 -139 284
-234 532 -333 16 -6 -1 -18 -85 -58 -443 -214 -664 -547 -585 -881 38 -160
167 -314 346 -411 l50 -28 -98 -32 c-267 -89 -397 -214 -419 -405 -19 -156
107 -336 306 -436 368 -186 1115 -243 1679 -129 144 29 339 93 441 144 200
101 363 270 447 465 94 221 82 516 -31 703 l-35 57 815 0 814 0 0 59 0 58 -70
6 c-153 13 -246 61 -291 150 -34 66 -41 221 -36 821 5 602 8 653 68 885 76
297 235 491 401 491 62 0 89 -15 193 -105 33 -28 74 -61 92 -74 95 -65 272
-86 366 -43 102 46 162 113 203 228 29 79 41 222 26 302 l-9 53 24 -23 c35
-33 52 -69 70 -151 14 -62 17 -203 20 -1051 5 -1213 0 -1308 -80 -1387 -44
-45 -139 -87 -217 -96 l-65 -8 -3 -57 -3 -58 1486 0 1486 0 -3 56 -3 56 -78
23 c-141 40 -186 103 -206 287 -7 62 -11 414 -11 975 l0 878 36 55 c59 90 141
186 197 228 143 111 295 140 401 78 56 -33 80 -61 111 -128 43 -93 46 -199 43
-1203 -3 -798 -6 -927 -19 -972 -33 -108 -99 -172 -212 -203 l-62 -17 -3 -56
-3 -57 771 0 771 0 -3 57 -3 57 -63 13 c-71 14 -146 45 -175 71 -28 25 -54 80
-67 143 -9 38 -15 319 -20 984 -5 611 -11 963 -19 1025 -18 145 -46 245 -97
350 -40 81 -61 109 -143 191 -81 80 -110 103 -181 137 -127 60 -201 76 -360
76 -299 0 -516 -101 -800 -371 l-100 -95 0 191 0 191 -615 0 -615 0 0 -63 0
-62 66 -13 c74 -14 148 -48 181 -84 12 -13 29 -42 37 -65 34 -97 37 -220 34
-1298 -4 -1128 -4 -1124 -52 -1196 -22 -35 -79 -72 -142 -94 -48 -17 -50 -17
-109 5 -121 46 -159 120 -176 344 -4 66 -9 662 -9 1324 l0 1202 -565 0 -565 0
-38 25 c-160 106 -415 75 -648 -77 -138 -91 -338 -315 -500 -562 l-39 -59 -3
336 -2 337 -616 0 c-607 0 -616 0 -621 -20 -5 -20 -14 -20 -442 -20 l-437 0
-90 30 c-240 82 -451 111 -672 92 -220 -19 -357 -55 -528 -137 -162 -78 -343
-231 -448 -378 -57 -80 -128 -229 -151 -320 l-18 -69 -37 104 c-69 195 -147
324 -278 460 -170 176 -314 263 -527 318 -92 24 -293 34 -393 20z m2724 -228
c128 -66 206 -202 248 -428 26 -139 39 -377 32 -574 -12 -358 -54 -521 -167
-644 -103 -112 -262 -155 -393 -106 -83 32 -174 123 -221 222 -74 155 -105
443 -86 791 20 370 62 526 174 644 93 99 154 125 282 120 68 -2 100 -9 131
-25z m-2514 7 c22 -6 63 -33 98 -66 48 -44 70 -76 105 -147 69 -144 91 -281
102 -623 l6 -213 -436 0 -437 0 0 139 c0 261 43 479 130 657 59 121 132 206
205 241 55 25 160 31 227 12z m4033 -47 c59 -41 93 -115 106 -229 6 -59 9
-463 6 -1135 -3 -911 -6 -1052 -20 -1115 -18 -84 -35 -118 -74 -155 -36 -34
-90 -57 -173 -72 l-65 -12 -5 -48 -5 -47 -45 46 c-218 226 -552 293 -1375 278
-430 -8 -510 4 -593 86 -54 55 -67 87 -67 176 0 64 5 90 23 127 31 62 89 121
154 155 l53 28 295 -3 c333 -4 401 5 601 74 280 96 486 236 629 425 70 93 109
172 146 294 25 82 27 105 28 255 1 144 -2 175 -22 245 -41 140 -88 221 -218
373 l-37 42 282 0 281 0 0 126 0 126 28 -6 c15 -4 45 -19 67 -34z m-1035
-3301 c181 -20 282 -57 357 -132 53 -52 67 -93 61 -179 -14 -197 -212 -333
-578 -397 -73 -13 -160 -17 -380 -18 -285 0 -359 6 -510 42 -150 36 -295 135
-355 244 -26 47 -30 64 -30 134 0 67 4 89 25 130 51 99 166 166 317 184 99 12
966 6 1093 -8z"/>
<path d="M21765 4525 c-267 -43 -480 -154 -695 -362 -304 -294 -447 -630 -481
-1129 -27 -408 57 -817 226 -1103 234 -396 582 -591 1055 -591 466 0 790 185
1072 614 52 79 168 285 168 298 0 3 -24 21 -54 41 l-54 36 -69 -96 c-79 -112
-197 -241 -260 -284 -161 -111 -364 -146 -543 -93 -278 81 -510 371 -611 762
-29 112 -59 308 -59 383 l0 39 826 0 827 0 -7 108 c-17 271 -75 520 -167 721
-114 247 -339 475 -575 582 -167 76 -405 105 -599 74z m262 -225 c115 -52 219
-227 252 -425 17 -99 31 -309 31 -466 l0 -149 -437 0 -436 0 6 178 c9 277 44
437 131 617 73 149 146 229 234 255 53 16 174 11 219 -10z"/>
</g>
</svg>
